<svg width="30" height="30" viewBox="0 0 30 30" fill="none" xmlns="http://www.w3.org/2000/svg">
<path d="M14.9987 9.22119C13.4658 9.22119 11.9956 9.83015 10.9117 10.9141C9.82771 11.9981 9.21875 13.4682 9.21875 15.0012C9.21875 16.5341 9.82771 18.0043 10.9117 19.0883C11.9956 20.1722 13.4658 20.7812 14.9987 20.7812C16.5317 20.7812 18.0019 20.1722 19.0858 19.0883C20.1698 18.0043 20.7787 16.5341 20.7787 15.0012C20.7787 13.4682 20.1698 11.9981 19.0858 10.9141C18.0019 9.83015 16.5317 9.22119 14.9987 9.22119ZM14.9987 18.7549C14.0029 18.7549 13.0478 18.3593 12.3436 17.6551C11.6394 16.9509 11.2437 15.9958 11.2437 14.9999C11.2437 14.0041 11.6394 13.049 12.3436 12.3448C13.0478 11.6406 14.0029 11.2449 14.9987 11.2449C15.9946 11.2449 16.9497 11.6406 17.6539 12.3448C18.3581 13.049 18.7537 14.0041 18.7537 14.9999C18.7537 15.9958 18.3581 16.9509 17.6539 17.6551C16.9497 18.3593 15.9946 18.7549 14.9987 18.7549Z" fill="white"/>
<path d="M21.0077 10.3563C21.7519 10.3563 22.3552 9.75296 22.3552 9.00875C22.3552 8.26455 21.7519 7.66125 21.0077 7.66125C20.2635 7.66125 19.6602 8.26455 19.6602 9.00875C19.6602 9.75296 20.2635 10.3563 21.0077 10.3563Z" fill="white"/>
<path d="M25.6657 7.63873C25.3763 6.89145 24.9341 6.21283 24.3674 5.6463C23.8006 5.07977 23.1218 4.63781 22.3745 4.34873C21.4999 4.02042 20.5759 3.8429 19.642 3.82373C18.4382 3.77123 18.057 3.75623 15.0045 3.75623C11.952 3.75623 11.5607 3.75623 10.367 3.82373C9.43369 3.84192 8.5104 4.01948 7.63695 4.34873C6.88937 4.63748 6.21041 5.07931 5.64362 5.64589C5.07683 6.21246 4.63474 6.89126 4.3457 7.63873C4.01733 8.51324 3.84022 9.43727 3.82195 10.3712C3.7682 11.5737 3.75195 11.955 3.75195 15.0087C3.75195 18.0612 3.75195 18.45 3.82195 19.6462C3.8407 20.5812 4.01695 21.5037 4.3457 22.38C4.63555 23.1272 5.07807 23.8057 5.645 24.3722C6.21192 24.9387 6.89078 25.3807 7.6382 25.67C8.50999 26.0115 9.43367 26.2017 10.3695 26.2325C11.5732 26.285 11.9545 26.3012 15.007 26.3012C18.0595 26.3012 18.4507 26.3012 19.6445 26.2325C20.5783 26.2135 21.5022 26.0364 22.377 25.7087C23.1241 25.419 23.8027 24.9766 24.3694 24.4099C24.9361 23.8433 25.3784 23.1647 25.6682 22.4175C25.997 21.5425 26.1732 20.62 26.192 19.685C26.2457 18.4825 26.262 18.1012 26.262 15.0475C26.262 11.9937 26.262 11.6062 26.192 10.41C26.1774 9.46282 25.9994 8.52529 25.6657 7.63873ZM24.1432 19.5537C24.1351 20.2741 24.0037 20.9878 23.7545 21.6637C23.5667 22.1498 23.2794 22.5912 22.9108 22.9596C22.5422 23.3279 22.1006 23.615 21.6145 23.8025C20.946 24.0505 20.2399 24.182 19.527 24.1912C18.3395 24.2462 18.0045 24.26 14.9595 24.26C11.912 24.26 11.6007 24.26 10.3907 24.1912C9.67811 24.1825 8.97236 24.051 8.30445 23.8025C7.81656 23.6162 7.37321 23.3296 7.00307 22.9612C6.63293 22.5928 6.34425 22.1507 6.1557 21.6637C5.91001 20.995 5.77859 20.2898 5.76695 19.5775C5.7132 18.39 5.7007 18.055 5.7007 15.01C5.7007 11.9637 5.7007 11.6525 5.76695 10.4412C5.77503 9.72125 5.90652 9.008 6.1557 8.33248C6.53695 7.34623 7.3182 6.56998 8.30445 6.19248C8.97269 5.94515 9.67823 5.81368 10.3907 5.80373C11.5795 5.74998 11.9132 5.73498 14.9595 5.73498C18.0057 5.73498 18.3182 5.73498 19.527 5.80373C20.24 5.8123 20.9462 5.94381 21.6145 6.19248C22.1006 6.38032 22.5421 6.66773 22.9107 7.03626C23.2792 7.4048 23.5666 7.84631 23.7545 8.33248C24.0001 9.00116 24.1316 9.70643 24.1432 10.4187C24.197 11.6075 24.2107 11.9412 24.2107 14.9875C24.2107 18.0325 24.2107 18.36 24.157 19.555H24.1432V19.5537Z" fill="white"/>
</svg>
