<svg width="24" height="24" viewBox="0 0 24 24" fill="none" xmlns="http://www.w3.org/2000/svg">
<path d="M22.6657 4.63873C22.3763 3.89145 21.9341 3.21283 21.3674 2.6463C20.8006 2.07977 20.1218 1.63781 19.3745 1.34873C18.4999 1.02042 17.5759 0.842902 16.642 0.823725C15.4382 0.771225 15.057 0.756226 12.0045 0.756226C8.95195 0.756226 8.5607 0.756225 7.36695 0.823725C6.43369 0.841922 5.5104 1.01948 4.63695 1.34873C3.88937 1.63748 3.21041 2.07931 2.64362 2.64589C2.07683 3.21246 1.63474 3.89126 1.3457 4.63873C1.01733 5.51324 0.840221 6.43727 0.821953 7.37123C0.768203 8.57373 0.751953 8.95498 0.751953 12.0087C0.751953 15.0612 0.751953 15.45 0.821953 16.6462C0.840703 17.5812 1.01695 18.5037 1.3457 19.38C1.63555 20.1272 2.07807 20.8057 2.645 21.3722C3.21192 21.9387 3.89078 22.3807 4.6382 22.67C5.50999 23.0115 6.43367 23.2017 7.36945 23.2325C8.5732 23.285 8.95445 23.3012 12.007 23.3012C15.0595 23.3012 15.4507 23.3012 16.6445 23.2325C17.5783 23.2135 18.5022 23.0364 19.377 22.7087C20.1241 22.419 20.8027 21.9766 21.3694 21.4099C21.9361 20.8433 22.3784 20.1647 22.6682 19.4175C22.997 18.5425 23.1732 17.62 23.192 16.685C23.2457 15.4825 23.262 15.1012 23.262 12.0475C23.262 8.99373 23.262 8.60623 23.192 7.40998C23.1774 6.46282 22.9994 5.52529 22.6657 4.63873ZM21.1432 16.5537C21.1351 17.2741 21.0037 17.9878 20.7545 18.6637C20.5667 19.1498 20.2794 19.5912 19.9108 19.9596C19.5422 20.3279 19.1006 20.615 18.6145 20.8025C17.946 21.0505 17.2399 21.182 16.527 21.1912C15.3395 21.2462 15.0045 21.26 11.9595 21.26C8.91195 21.26 8.6007 21.26 7.3907 21.1912C6.67811 21.1825 5.97236 21.051 5.30445 20.8025C4.81656 20.6162 4.37321 20.3296 4.00307 19.9612C3.63293 19.5928 3.34425 19.1507 3.1557 18.6637C2.91001 17.995 2.77859 17.2898 2.76695 16.5775C2.7132 15.39 2.7007 15.055 2.7007 12.01C2.7007 8.96373 2.7007 8.65247 2.76695 7.44123C2.77503 6.72125 2.90652 6.008 3.1557 5.33248C3.53695 4.34623 4.3182 3.56998 5.30445 3.19248C5.97269 2.94515 6.67823 2.81368 7.3907 2.80373C8.57945 2.74998 8.9132 2.73498 11.9595 2.73498C15.0057 2.73498 15.3182 2.73498 16.527 2.80373C17.24 2.8123 17.9462 2.94381 18.6145 3.19248C19.1006 3.38032 19.5421 3.66773 19.9107 4.03626C20.2792 4.4048 20.5666 4.84631 20.7545 5.33248C21.0001 6.00116 21.1316 6.70643 21.1432 7.41873C21.197 8.60748 21.2107 8.94123 21.2107 11.9875C21.2107 15.0325 21.2107 15.36 21.157 16.555H21.1432V16.5537Z" fill="white"/>
</svg>
