<svg width="26" height="18" viewBox="0 0 26 18" fill="none" xmlns="http://www.w3.org/2000/svg">
<path d="M24.9912 3.00376C24.8488 2.47551 24.5706 1.99376 24.1841 1.60647C23.7977 1.21917 23.3166 0.939835 22.7887 0.796259C20.8312 0.258759 12.9999 0.250009 12.9999 0.250009C12.9999 0.250009 5.16992 0.241259 3.21117 0.755009C2.68358 0.905192 2.20345 1.18848 1.81688 1.57768C1.43031 1.96687 1.15028 2.44891 1.00367 2.97751C0.487424 4.93501 0.482424 8.99501 0.482424 8.99501C0.482424 8.99501 0.477424 13.075 0.989924 15.0125C1.27742 16.0838 2.12117 16.93 3.19367 17.2188C5.17117 17.7563 12.9812 17.765 12.9812 17.765C12.9812 17.765 20.8124 17.7738 22.7699 17.2613C23.298 17.1179 23.7796 16.8392 24.167 16.4527C24.5544 16.0662 24.8342 15.5853 24.9787 15.0575C25.4962 13.1013 25.4999 9.04251 25.4999 9.04251C25.4999 9.04251 25.5249 4.96126 24.9912 3.00376ZM10.4949 12.7563L10.5012 5.25626L17.0099 9.01251L10.4949 12.7563Z" fill="white"/>
</svg>
